<svg xmlns="http://www.w3.org/2000/svg" viewBox="0 0 192 192">
  <rect width="192" height="192" rx="40" fill="#0f172a"/>
  <rect x="32" y="32" width="128" height="128" rx="28" fill="#f97316"/>
  <path d="M48 124a4 4 0 0 0 4 4h88a4 4 0 0 0 4-4v-12a4 4 0 0 0-4-4H52a4 4 0 0 0-4 4z" fill="none" stroke="#fff" stroke-width="7" stroke-linecap="round" stroke-linejoin="round"/>
  <path d="M80 94V70a6 6 0 0 1 6-6h20a6 6 0 0 1 6 6v24" fill="none" stroke="#fff" stroke-width="7" stroke-linecap="round" stroke-linejoin="round"/>
  <path d="M60 104V82a36 36 0 0 1 36-36" fill="none" stroke="#fff" stroke-width="7" stroke-linecap="round" stroke-linejoin="round"/>
  <path d="M96 46a36 36 0 0 1 36 36v22" fill="none" stroke="#fff" stroke-width="7" stroke-linecap="round" stroke-linejoin="round"/>
</svg>
